<?xml version="1.0" standalone="no"?>
<!DOCTYPE svg PUBLIC "-//W3C//DTD SVG 20010904//EN"
 "http://www.w3.org/TR/2001/REC-SVG-20010904/DTD/svg10.dtd">
<svg version="1.0" xmlns="http://www.w3.org/2000/svg"
 width="500.000000pt" height="500.000000pt" viewBox="0 0 500.000000 500.000000"
 preserveAspectRatio="xMidYMid meet">
<metadata>
Created by potrace 1.14, written by Peter Selinger 2001-2017
</metadata>
<g transform="translate(0.000000,500.000000) scale(0.100000,-0.100000)"
fill="#000000" stroke="none">
<path d="M2339 4656 c-2 -2 -33 -6 -69 -9 -181 -16 -453 -86 -620 -159 -121
-53 -331 -170 -395 -220 -5 -5 -46 -36 -90 -69 -109 -84 -302 -281 -391 -402
-216 -290 -351 -611 -410 -972 -28 -174 -26 -487 5 -680 48 -301 169 -603 345
-860 201 -294 499 -556 811 -713 165 -83 396 -165 530 -187 11 -2 65 -12 120
-21 72 -13 157 -18 305 -18 224 -1 289 5 460 39 14 3 39 8 55 11 37 6 223 62
250 74 11 5 43 18 71 29 113 43 292 140 414 225 465 321 805 850 895 1392 9
55 19 110 21 124 10 50 12 397 4 475 -36 316 -132 610 -290 883 -156 271 -438
563 -705 729 -187 117 -471 238 -624 268 -9 2 -34 8 -56 13 -22 6 -74 16 -115
22 -41 6 -86 14 -100 16 -32 6 -416 15 -421 10z"/>
</g>
</svg>
